<svg xmlns="http://www.w3.org/2000/svg" viewBox="0 0 512.003 512.003"><path fill="#132f3b" d="M502.478 52.424l-46.29 429.696-320.191-34.493 46.289-429.695z"/><path fill="#388cb2" d="M361.064 431.116L39.839 453.691 9.544 22.609 330.77.035z"/><path fill="#265d77" d="M255.732 438.527l105.368-7.409L330.783 0l-75.051 5.278z"/><path d="M98.869 512h292.025V85.037H98.869V512z" fill="#b7e4f8"/><path fill="#6fc8f1" d="M255.732 85.037h135.164v426.966H255.732z"/><g fill="#265d77"><path d="M146.987 299.878h195.796v30.021H146.987zM146.987 353.275h195.796v30.021H146.987zM146.987 406.672h195.796v30.021H146.987z"/></g><g fill="#132f3b"><path d="M255.732 299.878h87.047v30.021h-87.047zM255.732 406.672h87.047v30.021h-87.047zM255.732 353.275h87.047v30.021h-87.047z"/></g><g fill="#265d77"><path d="M143.957 213.427c0-29.044 22.289-49.442 52.684-49.442 18.508 0 33.097 6.755 42.418 18.912l-20.128 17.966c-5.539-7.025-12.157-11.078-20.668-11.078-13.238 0-22.154 9.186-22.154 23.64s8.916 23.64 22.154 23.64c8.511 0 15.13-4.053 20.668-11.078l20.128 17.966c-9.321 12.157-23.911 18.912-42.418 18.912-30.395.004-52.684-20.394-52.684-49.438zM349.293 166.146l-39.986 94.562h-31.341l-39.987-94.562h34.312l22.56 55.251 23.101-55.251h31.341z"/></g><path fill="#132f3b" d="M317.953 166.146l-23.1 55.252-22.56-55.252h-16.561v41.981l22.235 52.581h31.341l39.985-94.562z"/></svg>